<svg width="398" height="51" viewBox="0 0 398 51" fill="none" xmlns="http://www.w3.org/2000/svg">
<path d="M156.184 36.1055C156.114 36.0352 156.079 35.8594 156.079 35.5781C156.079 35.25 156.114 35.0859 156.184 35.0859C156.395 35.0859 156.676 35.0508 157.028 34.9805C157.379 34.8867 157.707 34.7812 158.012 34.6641C158.34 34.5469 158.539 34.418 158.61 34.2773C158.774 34.0195 158.856 32.918 158.856 30.9727V17.6836C158.856 17.0039 158.832 16.4062 158.786 15.8906C158.762 15.375 158.704 14.9648 158.61 14.6602C158.563 14.5195 158.375 14.3906 158.047 14.2734C157.743 14.1562 157.403 14.0625 157.028 13.9922C156.676 13.9219 156.395 13.8867 156.184 13.8867C156.09 13.8867 156.043 13.7461 156.043 13.4648C156.043 13.1602 156.09 12.9609 156.184 12.8672C156.793 12.8906 157.438 12.9141 158.118 12.9375C158.821 12.9375 159.571 12.9375 160.368 12.9375L163.778 12.9023C164.457 12.9023 165.02 12.9023 165.465 12.9023C165.911 12.8789 166.25 12.8672 166.485 12.8672C169.039 12.8672 171.219 13.3945 173.024 14.4492C174.829 15.4805 176.211 16.8516 177.172 18.5625C178.133 20.2734 178.614 22.1484 178.614 24.1875C178.614 26.4375 178.121 28.4766 177.137 30.3047C176.176 32.1328 174.782 33.5742 172.954 34.6289C171.149 35.6836 168.981 36.1758 166.45 36.1055L163.954 36.0352C163.25 36.0117 162.606 36 162.02 36C161.434 35.9766 160.907 35.9766 160.438 36L156.184 36.1055ZM167.012 34.4883C172.403 34.4883 175.098 31.0078 175.098 24.0469C175.098 22.2656 174.782 20.6484 174.149 19.1953C173.516 17.7422 172.579 16.582 171.336 15.7148C170.118 14.8477 168.594 14.4141 166.766 14.4141H166.59C164.059 14.4141 162.653 14.6016 162.371 14.9766C162.067 15.375 161.914 16.1133 161.914 17.1914V31.1133C161.914 32.0742 162.09 32.9648 162.442 33.7852C162.489 33.9023 162.688 34.0078 163.039 34.1016C163.391 34.1719 163.813 34.2422 164.305 34.3125C164.821 34.3594 165.325 34.4062 165.817 34.4531C166.309 34.4766 166.707 34.4883 167.012 34.4883ZM192.233 36.2109C190.944 36.2109 189.761 35.8711 188.682 35.1914C187.604 34.5117 186.737 33.6094 186.081 32.4844C185.448 31.3359 185.132 30.0586 185.132 28.6523C185.132 27.0117 185.436 25.5938 186.046 24.3984C186.655 23.2031 187.487 22.2891 188.542 21.6562C189.596 21 190.78 20.6719 192.093 20.6719C193.171 20.6719 194.12 20.8828 194.94 21.3047C195.761 21.7031 196.393 22.2188 196.839 22.8516C197.261 23.5078 197.565 24.1758 197.753 24.8555C197.964 25.5117 198.069 26.168 198.069 26.8242C198.069 27.293 197.999 27.5859 197.858 27.7031C197.718 27.7969 197.448 27.8438 197.05 27.8438H188.19C188.003 27.8438 187.909 27.9023 187.909 28.0195C187.909 29.0039 188.108 29.9531 188.507 30.8672C188.905 31.7578 189.491 32.4961 190.264 33.082C191.038 33.668 191.987 33.9609 193.112 33.9609C194.096 33.9609 194.917 33.8203 195.573 33.5391C196.253 33.2344 196.745 32.9648 197.05 32.7305L197.296 32.5547C197.436 32.5547 197.507 32.707 197.507 33.0117C197.507 33.1758 197.436 33.3867 197.296 33.6445C196.827 34.3008 196.136 34.8984 195.221 35.4375C194.307 35.9531 193.311 36.2109 192.233 36.2109ZM188.19 26.3672H195.046C195.163 26.3672 195.221 26.25 195.221 26.0156C195.221 25.5 195.081 24.9375 194.8 24.3281C194.542 23.6953 194.143 23.1445 193.604 22.6758C193.065 22.207 192.386 21.9727 191.565 21.9727C190.815 21.9727 190.171 22.2305 189.632 22.7461C189.093 23.2383 188.682 23.8125 188.401 24.4688C188.12 25.1016 187.979 25.6523 187.979 26.1211C187.979 26.2852 188.05 26.3672 188.19 26.3672ZM203.638 36.1055C203.544 36.0117 203.497 35.8125 203.497 35.5078C203.497 35.2266 203.544 35.0859 203.638 35.0859C203.825 35.0859 204.083 35.0508 204.411 34.9805C204.739 34.9102 205.044 34.8164 205.325 34.6992C205.607 34.582 205.759 34.4766 205.782 34.3828C205.876 34.0547 205.935 33.6797 205.958 33.2578C206.005 32.8359 206.029 32.3906 206.029 31.9219V25.2773C206.029 24.3867 205.864 23.7539 205.536 23.3789C205.302 23.0977 205.021 22.9102 204.693 22.8164C204.388 22.7227 204.107 22.6758 203.849 22.6758C203.614 22.6523 203.497 22.6172 203.497 22.5703C203.497 22.0078 203.568 21.7148 203.708 21.6914C204.95 21.5039 205.923 21.3398 206.626 21.1992C207.353 21.0586 207.904 20.9414 208.279 20.8477L208.736 20.7422C208.829 20.7188 208.888 20.8125 208.911 21.0234C208.935 21.2109 208.935 21.3633 208.911 21.4805C208.864 21.8086 208.829 22.0898 208.806 22.3242C208.782 22.5586 208.771 22.7461 208.771 22.8867C208.771 22.9805 208.794 23.0273 208.841 23.0273C208.864 23.0273 208.9 23.0039 208.946 22.957C209.486 22.3945 210.212 21.8672 211.126 21.375C212.064 20.8594 212.954 20.6016 213.798 20.6016C214.736 20.6016 215.509 20.8594 216.118 21.375C216.751 21.8672 217.185 22.4414 217.419 23.0977C219.2 21.4336 221.017 20.6016 222.868 20.6016C225.821 20.6016 227.298 22.8516 227.298 27.3516V31.2539C227.298 31.9336 227.321 32.5312 227.368 33.0469C227.415 33.5625 227.486 34.0078 227.579 34.3828C227.626 34.4766 227.79 34.582 228.071 34.6992C228.353 34.8164 228.657 34.9102 228.986 34.9805C229.314 35.0508 229.548 35.0859 229.689 35.0859C229.759 35.0859 229.806 35.2266 229.829 35.5078C229.853 35.7891 229.841 35.9883 229.794 36.1055L226.032 35.9297L222.2 36.1055C222.107 36.0117 222.06 35.8125 222.06 35.5078C222.06 35.2266 222.107 35.0859 222.2 35.0859C222.388 35.0859 222.646 35.0508 222.974 34.9805C223.302 34.9102 223.607 34.8164 223.888 34.6992C224.169 34.582 224.321 34.4766 224.345 34.3828C224.439 34.0547 224.497 33.7031 224.521 33.3281C224.568 32.9297 224.591 32.5312 224.591 32.1328V28.1602C224.591 24.5508 223.407 22.7461 221.04 22.7461C220.478 22.7461 219.95 22.875 219.458 23.1328C218.966 23.3672 218.568 23.6367 218.263 23.9414C217.982 24.2461 217.841 24.5156 217.841 24.75C217.911 25.1953 217.958 25.6523 217.982 26.1211C218.005 26.5664 218.017 27.0586 218.017 27.5977V31.5703C218.017 32.1562 218.04 32.6836 218.087 33.1523C218.134 33.5977 218.204 34.0078 218.298 34.3828C218.345 34.4766 218.509 34.582 218.79 34.6992C219.071 34.8164 219.376 34.9102 219.704 34.9805C220.032 35.0508 220.267 35.0859 220.407 35.0859C220.478 35.0859 220.525 35.2266 220.548 35.5078C220.571 35.7891 220.56 35.9883 220.513 36.1055L216.751 35.9297L212.919 36.1055C212.825 36.0117 212.779 35.8125 212.779 35.5078C212.779 35.2266 212.825 35.0859 212.919 35.0859C213.107 35.0859 213.364 35.0508 213.693 34.9805C214.021 34.9102 214.325 34.8164 214.607 34.6992C214.888 34.582 215.04 34.4766 215.064 34.3828C215.157 34.0547 215.216 33.6797 215.239 33.2578C215.286 32.8359 215.31 32.3906 215.31 31.9219V28.3359C215.31 24.6094 214.185 22.7461 211.935 22.7461C211.466 22.7461 210.986 22.875 210.493 23.1328C210.001 23.3672 209.579 23.6719 209.228 24.0469C208.9 24.3984 208.736 24.7383 208.736 25.0664V31.2539C208.736 31.9336 208.759 32.5312 208.806 33.0469C208.853 33.5625 208.923 34.0078 209.017 34.3828C209.064 34.4766 209.228 34.582 209.509 34.6992C209.79 34.8164 210.095 34.9102 210.423 34.9805C210.751 35.0508 210.986 35.0859 211.126 35.0859C211.196 35.0859 211.243 35.2266 211.267 35.5078C211.29 35.7891 211.279 35.9883 211.232 36.1055L207.47 35.9297L203.638 36.1055ZM243.273 36.2461C241.867 36.2461 240.578 35.8945 239.406 35.1914C238.234 34.4883 237.296 33.5391 236.593 32.3438C235.914 31.1484 235.574 29.8359 235.574 28.4062C235.574 26.9531 235.902 25.6406 236.558 24.4688C237.238 23.2969 238.152 22.3711 239.3 21.6914C240.449 20.9883 241.75 20.6367 243.203 20.6367C244.609 20.6367 245.886 20.9883 247.035 21.6914C248.207 22.3945 249.132 23.332 249.812 24.5039C250.515 25.6758 250.867 26.9766 250.867 28.4062C250.867 29.8359 250.527 31.1484 249.847 32.3438C249.168 33.5391 248.254 34.4883 247.105 35.1914C245.98 35.8945 244.703 36.2461 243.273 36.2461ZM243.589 34.875C244.433 34.875 245.171 34.6055 245.804 34.0664C246.437 33.5273 246.929 32.8008 247.281 31.8867C247.656 30.9727 247.843 29.9766 247.843 28.8984C247.843 27.6328 247.609 26.4844 247.14 25.4531C246.671 24.3984 246.05 23.5664 245.277 22.957C244.527 22.3242 243.707 22.0078 242.816 22.0078C241.996 22.0078 241.257 22.2773 240.601 22.8164C239.968 23.332 239.476 24.0352 239.125 24.9258C238.773 25.793 238.597 26.7773 238.597 27.8789C238.597 29.1445 238.82 30.3164 239.265 31.3945C239.734 32.4492 240.343 33.293 241.093 33.9258C241.867 34.5586 242.699 34.875 243.589 34.875Z" fill="#CBBFA1"/>
<path d="M0.333333 26C0.333333 27.4728 1.52724 28.6667 3 28.6667C4.47276 28.6667 5.66667 27.4728 5.66667 26C5.66667 24.5272 4.47276 23.3333 3 23.3333C1.52724 23.3333 0.333333 24.5272 0.333333 26ZM132 26.5C132.276 26.5 132.5 26.2761 132.5 26C132.5 25.7239 132.276 25.5 132 25.5V26.5ZM3 26V26.5H132V26V25.5H3V26Z" fill="#CBBFA1" fill-opacity="0.9"/>
<path d="M263 25.5C262.724 25.5 262.5 25.7239 262.5 26C262.5 26.2761 262.724 26.5 263 26.5L263 25.5ZM392.333 26C392.333 27.4728 393.527 28.6667 395 28.6667C396.473 28.6667 397.667 27.4728 397.667 26C397.667 24.5273 396.473 23.3333 395 23.3333C393.527 23.3333 392.333 24.5273 392.333 26ZM263 26L263 26.5L395 26.5L395 26L395 25.5L263 25.5L263 26Z" fill="#CBBFA1" fill-opacity="0.9"/>
</svg>
