<svg width="400" height="6" viewBox="0 0 400 6" fill="none" xmlns="http://www.w3.org/2000/svg">
<path d="M0.333333 3C0.333333 4.47276 1.52724 5.66667 3 5.66667C4.47276 5.66667 5.66667 4.47276 5.66667 3C5.66667 1.52724 4.47276 0.333333 3 0.333333C1.52724 0.333333 0.333333 1.52724 0.333333 3ZM394.333 3.00003C394.333 4.47279 395.527 5.6667 397 5.6667C398.473 5.6667 399.667 4.47279 399.667 3.00003C399.667 1.52728 398.473 0.333368 397 0.333368C395.527 0.333368 394.333 1.52727 394.333 3.00003ZM3 3L3 3.5L397 3.50003L397 3.00003L397 2.50003L3 2.5L3 3Z" fill="#CBBFA1" fill-opacity="0.9"/>
</svg>
