<svg width="345" height="97" viewBox="0 0 345 97" fill="none" xmlns="http://www.w3.org/2000/svg">
<path d="M6 86.6C6 88.8402 6 89.9603 6.43597 90.816C6.81947 91.5686 7.43139 92.1805 8.18404 92.564C9.03968 93 10.1598 93 12.4 93H334.6C336.84 93 337.96 93 338.816 92.564C339.569 92.1805 340.181 91.5686 340.564 90.816C341 89.9603 341 88.8402 341 86.6V47.5V11.4C341 9.15979 341 8.03968 340.564 7.18404C340.181 6.43139 339.569 5.81947 338.816 5.43597C337.96 5 336.84 5 334.6 5H171.644H12.4C10.1598 5 9.03968 5 8.18404 5.43597C7.43139 5.81947 6.81947 6.43139 6.43597 7.18404C6 8.03968 6 9.15979 6 11.4V47.5V86.6Z" fill="#2F5869"/>
<path d="M72.322 41.431C71.356 43.097 69.949 44.784 68.101 46.492C66.267 48.2 64.384 49.558 62.452 50.566L62.284 50.272C63.446 49.502 64.643 48.494 65.875 47.248C67.107 46.002 68.171 44.728 69.067 43.426C69.921 42.208 70.453 41.018 70.663 39.856L73.561 40.738C73.533 40.864 73.449 40.962 73.309 41.032C73.169 41.088 72.966 41.13 72.7 41.158C73.568 42.558 74.772 43.846 76.312 45.022C77.866 46.198 79.588 47.213 81.478 48.067L81.436 48.382C81.086 48.452 80.778 48.62 80.512 48.886C80.26 49.138 80.099 49.425 80.029 49.747C78.321 48.739 76.774 47.514 75.388 46.072C74.016 44.616 72.994 43.069 72.322 41.431ZM70.285 48.277C69.487 48.291 68.647 48.389 67.765 48.571L67.219 47.5C67.989 47.584 68.92 47.64 70.012 47.668H73.393L73.855 46.975C73.897 46.919 73.967 46.821 74.065 46.681C74.163 46.541 74.24 46.436 74.296 46.366C74.366 46.296 74.429 46.261 74.485 46.261C74.569 46.261 74.758 46.38 75.052 46.618C75.36 46.856 75.64 47.115 75.892 47.395C76.158 47.661 76.291 47.843 76.291 47.941C76.249 48.165 76.067 48.277 75.745 48.277H70.285ZM68.563 51.931C67.569 51.945 66.519 52.043 65.413 52.225L64.867 51.133C65.637 51.217 66.568 51.273 67.66 51.301H75.976L76.354 50.818C76.396 50.776 76.452 50.706 76.522 50.608C76.606 50.51 76.676 50.44 76.732 50.398C76.788 50.342 76.844 50.314 76.9 50.314C76.984 50.314 77.173 50.433 77.467 50.671C77.761 50.895 78.034 51.14 78.286 51.406C78.538 51.658 78.664 51.833 78.664 51.931C78.51 52.113 78.174 52.225 77.656 52.267C77.25 53.247 76.711 54.465 76.039 55.921C75.381 57.377 74.786 58.637 74.254 59.701C74.114 59.743 73.939 59.764 73.729 59.764C73.351 59.764 72.959 59.666 72.553 59.47C73.113 58.336 73.708 57.076 74.338 55.69C74.968 54.29 75.5 53.037 75.934 51.931H68.563ZM104.263 44.665C104.655 44.721 104.963 44.812 105.187 44.938C105.411 45.064 105.523 45.281 105.523 45.589C105.523 46.037 105.229 46.261 104.641 46.261C104.431 46.261 104.06 46.219 103.528 46.135C102.03 45.939 100.84 45.841 99.958 45.841C99.482 45.841 99.013 45.862 98.551 45.904C98.509 46.828 98.488 47.787 98.488 48.781C98.488 49.355 98.495 49.754 98.509 49.978C98.789 50.482 99.013 51.035 99.181 51.637C99.349 52.239 99.433 52.82 99.433 53.38C99.433 54.5 99.16 55.466 98.614 56.278C98.068 57.076 97.41 57.706 96.64 58.168C95.884 58.63 95.128 58.952 94.372 59.134C94.274 59.162 94.204 59.176 94.162 59.176C94.064 59.176 94.015 59.141 94.015 59.071C94.015 58.973 94.085 58.896 94.225 58.84C95.163 58.434 95.898 57.923 96.43 57.307C96.962 56.691 97.326 56.089 97.522 55.501C97.718 54.913 97.823 54.402 97.837 53.968V53.842C97.753 54.01 97.564 54.185 97.27 54.367C96.976 54.535 96.717 54.619 96.493 54.619C96.101 54.619 95.751 54.472 95.443 54.178C95.149 53.87 94.904 53.506 94.708 53.086C94.54 52.722 94.4 52.337 94.288 51.931C94.19 51.525 94.141 51.147 94.141 50.797C94.141 50.111 94.337 49.53 94.729 49.054C95.135 48.564 95.66 48.319 96.304 48.319C96.612 48.319 96.927 48.41 97.249 48.592C97.375 47.766 97.438 46.912 97.438 46.03C96.094 46.254 94.582 46.744 92.902 47.5C92.3 47.822 91.754 47.983 91.264 47.983C90.872 47.983 90.48 47.871 90.088 47.647C89.78 47.465 89.465 47.199 89.143 46.849C88.821 46.485 88.66 46.226 88.66 46.072C88.66 46.002 88.709 45.967 88.807 45.967C88.891 45.967 89.101 46.009 89.437 46.093C89.997 46.191 90.424 46.24 90.718 46.24C91.264 46.24 91.761 46.184 92.209 46.072C92.755 45.96 93.532 45.813 94.54 45.631C95.548 45.449 96.514 45.288 97.438 45.148C97.41 44.35 97.375 43.748 97.333 43.342C97.305 42.978 97.214 42.649 97.06 42.355C96.92 42.061 96.759 41.851 96.577 41.725C96.479 41.655 96.374 41.585 96.262 41.515C96.164 41.445 96.115 41.389 96.115 41.347C96.115 41.249 96.213 41.165 96.409 41.095C96.605 41.025 96.787 40.99 96.955 40.99C97.221 40.99 97.494 41.046 97.774 41.158C98.544 41.438 98.929 41.844 98.929 42.376C98.929 42.488 98.887 42.684 98.803 42.964C99.559 43.37 100.182 43.685 100.672 43.909C101.162 44.133 101.645 44.287 102.121 44.371C102.583 44.497 103.122 44.574 103.738 44.602L104.263 44.665ZM99.853 44.833C99.923 44.833 100.021 44.833 100.147 44.833C100.287 44.819 100.385 44.805 100.441 44.791C100.511 44.763 100.546 44.728 100.546 44.686C100.546 44.63 100.497 44.574 100.399 44.518C100.315 44.462 100.259 44.42 100.231 44.392C99.951 44.224 99.447 43.888 98.719 43.384C98.649 44.28 98.607 44.812 98.593 44.98C99.041 44.91 99.461 44.861 99.853 44.833ZM96.283 52.897C96.591 52.897 96.836 52.764 97.018 52.498C97.214 52.232 97.312 51.84 97.312 51.322C97.312 50.818 97.2 50.307 96.976 49.789C96.752 49.257 96.43 48.991 96.01 48.991C95.646 48.991 95.345 49.173 95.107 49.537C94.883 49.901 94.771 50.335 94.771 50.839C94.771 51.315 94.925 51.777 95.233 52.225C95.555 52.673 95.905 52.897 96.283 52.897ZM123.163 59.029C122.827 59.029 122.554 58.854 122.344 58.504C122.134 58.154 121.931 57.664 121.735 57.034C121.301 55.676 120.937 54.696 120.643 54.094C120.349 53.478 119.964 52.806 119.488 52.078C119.068 51.434 118.781 50.979 118.627 50.713C118.487 50.433 118.417 50.167 118.417 49.915C118.417 49.677 118.48 49.411 118.606 49.117C118.746 48.809 118.977 48.417 119.299 47.941C120.475 46.051 121.315 44.511 121.819 43.321C121.945 42.985 122.008 42.712 122.008 42.502C122.008 42.152 121.875 41.879 121.609 41.683C121.539 41.613 121.427 41.536 121.273 41.452C121.133 41.354 121.063 41.277 121.063 41.221C121.063 41.123 121.203 41.074 121.483 41.074C121.735 41.074 122.043 41.137 122.407 41.263C122.785 41.389 123.135 41.557 123.457 41.767C123.835 42.033 124.024 42.369 124.024 42.775C124.024 42.985 123.968 43.216 123.856 43.468C123.66 43.916 123.436 44.322 123.184 44.686C122.932 45.036 122.526 45.533 121.966 46.177C121.042 47.227 120.216 48.256 119.488 49.264C119.334 49.46 119.257 49.677 119.257 49.915C119.257 50.153 119.355 50.37 119.551 50.566C120.629 51.686 121.63 52.932 122.554 54.304C123.478 55.662 123.94 56.908 123.94 58.042C123.94 58.336 123.877 58.574 123.751 58.756C123.625 58.938 123.429 59.029 123.163 59.029ZM129.547 47.059C129.393 47.059 129.239 47.017 129.085 46.933C128.931 46.835 128.812 46.695 128.728 46.513C128.504 46.121 128.28 45.813 128.056 45.589C127.846 45.351 127.566 45.127 127.216 44.917C127.118 44.847 127.02 44.791 126.922 44.749C126.824 44.707 126.74 44.665 126.67 44.623C126.614 44.567 126.586 44.518 126.586 44.476C126.586 44.392 126.705 44.35 126.943 44.35C127.307 44.35 127.748 44.42 128.266 44.56C128.784 44.7 129.239 44.917 129.631 45.211C130.037 45.491 130.24 45.855 130.24 46.303C130.24 46.555 130.17 46.744 130.03 46.87C129.89 46.996 129.729 47.059 129.547 47.059ZM127.048 48.865C126.866 48.865 126.698 48.816 126.544 48.718C126.39 48.606 126.271 48.445 126.187 48.235C125.991 47.773 125.788 47.395 125.578 47.101C125.382 46.793 125.109 46.541 124.759 46.345C124.633 46.275 124.521 46.205 124.423 46.135C124.325 46.065 124.276 46.002 124.276 45.946C124.276 45.89 124.311 45.855 124.381 45.841C124.451 45.827 124.528 45.82 124.612 45.82C124.878 45.82 125.27 45.904 125.788 46.072C126.32 46.24 126.796 46.492 127.216 46.828C127.636 47.15 127.846 47.549 127.846 48.025C127.846 48.319 127.769 48.536 127.615 48.676C127.461 48.802 127.272 48.865 127.048 48.865ZM144.121 44.539C144.163 44.469 144.219 44.378 144.289 44.266C144.373 44.14 144.443 44.049 144.499 43.993C144.555 43.923 144.611 43.888 144.667 43.888C144.751 43.888 144.919 44 145.171 44.224C145.423 44.448 145.661 44.686 145.885 44.938C146.109 45.19 146.221 45.365 146.221 45.463C146.165 45.687 145.99 45.799 145.696 45.799H143.197V49.117L145.591 48.088L145.696 48.361L143.197 50.125V57.454C143.197 57.944 143.148 58.329 143.05 58.609C142.952 58.903 142.749 59.134 142.441 59.302C142.133 59.484 141.664 59.61 141.034 59.68C140.992 59.12 140.866 58.728 140.656 58.504C140.348 58.224 139.844 58.028 139.144 57.916V57.601C140.306 57.685 141.006 57.727 141.244 57.727C141.398 57.727 141.503 57.699 141.559 57.643C141.629 57.587 141.664 57.482 141.664 57.328V51.175L139.753 52.435C139.683 52.701 139.536 52.89 139.312 53.002L138.493 50.944C139.109 50.762 140.166 50.363 141.664 49.747V45.799H140.761C140.243 45.813 139.711 45.911 139.165 46.093L138.619 45.022C139.179 45.106 139.865 45.162 140.677 45.19H141.664V44.518C141.664 42.754 141.573 41.319 141.391 40.213C142.259 40.437 142.868 40.626 143.218 40.78C143.568 40.92 143.743 41.039 143.743 41.137C143.743 41.207 143.68 41.277 143.554 41.347L143.197 41.578V45.19H143.722L144.121 44.539ZM152.647 40.927C152.689 40.871 152.745 40.794 152.815 40.696C152.885 40.598 152.941 40.528 152.983 40.486C153.039 40.43 153.095 40.402 153.151 40.402C153.277 40.402 153.557 40.626 153.991 41.074C154.425 41.508 154.642 41.802 154.642 41.956C154.474 42.124 154.243 42.222 153.949 42.25V46.387C153.949 46.499 153.97 46.569 154.012 46.597C154.068 46.625 154.18 46.639 154.348 46.639H155.86C155.93 46.625 155.979 46.611 156.007 46.597C156.049 46.569 156.091 46.513 156.133 46.429C156.217 46.233 156.413 45.421 156.721 43.993H156.973L157.036 46.492C157.218 46.576 157.337 46.667 157.393 46.765C157.463 46.863 157.498 46.989 157.498 47.143C157.498 47.479 157.316 47.724 156.952 47.878C156.588 48.032 155.951 48.109 155.041 48.109H153.886C153.298 48.109 152.913 48.011 152.731 47.815C152.549 47.605 152.458 47.234 152.458 46.702V42.061H149.371V43.216C149.371 44.434 149.126 45.582 148.636 46.66C148.16 47.724 147.194 48.613 145.738 49.327L145.528 49.075C146.438 48.263 147.047 47.374 147.355 46.408C147.677 45.442 147.838 44.378 147.838 43.216V41.935C147.838 41.403 147.81 40.948 147.754 40.57L149.644 41.452H152.29L152.647 40.927ZM152.059 55.585C153.557 56.663 155.426 57.468 157.666 58L157.624 58.21C157.274 58.28 156.973 58.441 156.721 58.693C156.469 58.945 156.28 59.274 156.154 59.68C154.068 58.938 152.332 57.888 150.946 56.53C149.14 57.958 146.83 59.001 144.016 59.659L143.848 59.344C146.424 58.462 148.531 57.23 150.169 55.648C149.035 54.234 148.188 52.47 147.628 50.356H147.082C146.816 50.37 146.55 50.468 146.284 50.65L145.717 49.579C146.487 49.663 147.418 49.719 148.51 49.747H153.508L153.97 49.243C154.012 49.201 154.103 49.11 154.243 48.97C154.383 48.816 154.502 48.739 154.6 48.739C154.684 48.739 154.859 48.858 155.125 49.096C155.391 49.32 155.636 49.565 155.86 49.831C156.084 50.083 156.196 50.258 156.196 50.356C156.126 50.454 156.028 50.524 155.902 50.566C155.776 50.594 155.594 50.615 155.356 50.629C154.558 52.575 153.459 54.227 152.059 55.585ZM148.069 50.356C148.699 52.092 149.679 53.562 151.009 54.766C152.129 53.478 152.976 52.008 153.55 50.356H148.069ZM170.749 42.544C171.519 42.628 172.45 42.684 173.542 42.712H175.831C175.831 41.858 175.789 41.116 175.705 40.486C177.217 40.878 177.973 41.172 177.973 41.368C177.973 41.438 177.91 41.508 177.784 41.578L177.406 41.809V42.712H180.136L180.556 42.061C180.598 41.991 180.661 41.9 180.745 41.788C180.843 41.662 180.92 41.571 180.976 41.515C181.032 41.445 181.088 41.41 181.144 41.41C181.228 41.41 181.41 41.522 181.69 41.746C181.97 41.97 182.229 42.215 182.467 42.481C182.719 42.733 182.845 42.908 182.845 43.006C182.803 43.23 182.628 43.342 182.32 43.342H174.445C173.451 43.356 172.401 43.454 171.295 43.636L170.749 42.544ZM181.228 49.474C181.312 49.474 181.501 49.572 181.795 49.768C182.089 49.964 182.355 50.174 182.593 50.398C182.845 50.622 182.971 50.783 182.971 50.881C182.901 50.965 182.789 51.049 182.635 51.133C182.481 51.203 182.313 51.252 182.131 51.28V57.727C182.131 58.147 182.089 58.483 182.005 58.735C181.921 58.987 181.739 59.19 181.459 59.344C181.193 59.512 180.794 59.624 180.262 59.68C180.234 59.19 180.143 58.847 179.989 58.651C179.765 58.399 179.387 58.238 178.855 58.168V57.832C179.639 57.902 180.129 57.937 180.325 57.937C180.451 57.937 180.535 57.909 180.577 57.853C180.619 57.783 180.64 57.685 180.64 57.559V51.007H172.744V54.136C172.772 55.872 172.828 57.517 172.912 59.071C172.814 59.225 172.632 59.365 172.366 59.491C172.114 59.631 171.848 59.701 171.568 59.701C171.442 59.701 171.337 59.659 171.253 59.575C171.183 59.491 171.148 59.393 171.148 59.281C171.232 58.119 171.288 56.964 171.316 55.816V53.863C171.316 53.429 171.302 52.792 171.274 51.952C171.232 52.12 171.148 52.26 171.022 52.372C170.91 52.47 170.777 52.519 170.623 52.519C170.441 52.519 170.245 52.435 170.035 52.267C169.881 51.539 169.433 50.622 168.691 49.516V54.157C168.719 55.893 168.775 57.538 168.859 59.092C168.747 59.232 168.572 59.365 168.334 59.491C168.096 59.617 167.816 59.68 167.494 59.68C167.368 59.68 167.256 59.638 167.158 59.554C167.074 59.47 167.032 59.372 167.032 59.26C167.088 58.476 167.13 57.706 167.158 56.95C167.2 56.18 167.228 55.207 167.242 54.031V51.196C166.416 52.974 165.345 54.542 164.029 55.9L163.735 55.627C164.477 54.521 165.114 53.247 165.646 51.805C166.178 50.349 166.598 48.83 166.906 47.248H166.066C165.59 47.262 165.1 47.36 164.596 47.542L164.05 46.471C164.652 46.555 165.38 46.611 166.234 46.639H167.242V43.3C166.262 43.552 165.261 43.755 164.239 43.909L164.155 43.615C165.135 43.237 166.164 42.754 167.242 42.166C168.334 41.578 169.188 41.039 169.804 40.549C170.938 41.431 171.505 41.963 171.505 42.145C171.505 42.215 171.4 42.25 171.19 42.25L170.665 42.229C170.147 42.453 169.489 42.677 168.691 42.901V46.639H169.279L169.699 46.009C169.755 45.939 169.818 45.848 169.888 45.736C169.972 45.61 170.042 45.519 170.098 45.463C170.154 45.407 170.21 45.379 170.266 45.379C170.35 45.379 170.518 45.491 170.77 45.715C171.036 45.925 171.274 46.156 171.484 46.408C171.708 46.646 171.82 46.814 171.82 46.912C171.764 47.136 171.589 47.248 171.295 47.248H168.691V48.991C169.433 49.327 170.014 49.698 170.434 50.104C170.854 50.496 171.12 50.881 171.232 51.259C171.19 50.601 171.127 50.034 171.043 49.558L172.87 50.398H180.451L180.766 49.936C180.794 49.894 180.836 49.831 180.892 49.747C180.962 49.649 181.018 49.579 181.06 49.537C181.116 49.495 181.172 49.474 181.228 49.474ZM181.438 45.295C181.284 45.477 181.025 45.61 180.661 45.694V46.744L180.682 47.374C180.696 47.85 180.724 48.291 180.766 48.697C180.696 48.809 180.507 48.928 180.199 49.054C179.891 49.18 179.611 49.243 179.359 49.243H179.128V48.403H174.403V49.054C174.403 49.124 174.263 49.222 173.983 49.348C173.703 49.474 173.423 49.537 173.143 49.537C173.031 49.537 172.947 49.495 172.891 49.411C172.835 49.327 172.807 49.229 172.807 49.117C172.849 48.781 172.877 48.466 172.891 48.172L172.912 47.731V46.828C172.912 45.652 172.856 44.721 172.744 44.035L174.508 44.812H178.939L179.296 44.329C179.338 44.273 179.394 44.196 179.464 44.098C179.548 44 179.611 43.93 179.653 43.888C179.709 43.846 179.765 43.825 179.821 43.825C179.905 43.825 180.08 43.93 180.346 44.14C180.612 44.336 180.857 44.553 181.081 44.791C181.319 45.029 181.438 45.197 181.438 45.295ZM174.403 47.794H179.128V45.442H174.403V47.794ZM179.128 56.656C179.058 56.782 178.911 56.901 178.687 57.013C178.463 57.125 178.253 57.181 178.057 57.181H177.889V56.194H175.39V57.139C175.39 57.195 175.285 57.272 175.075 57.37C174.865 57.468 174.655 57.517 174.445 57.517C174.361 57.517 174.291 57.475 174.235 57.391C174.179 57.307 174.151 57.209 174.151 57.097C174.193 56.789 174.221 56.467 174.235 56.131C174.235 55.949 174.242 55.795 174.256 55.669V54.745C174.256 53.527 174.2 52.575 174.088 51.889L175.474 52.561H177.742L178.015 52.183C178.043 52.155 178.085 52.106 178.141 52.036C178.197 51.952 178.246 51.896 178.288 51.868C178.33 51.826 178.379 51.805 178.435 51.805C178.575 51.805 178.813 51.959 179.149 52.267C179.499 52.561 179.674 52.785 179.674 52.939C179.562 53.093 179.345 53.205 179.023 53.275V54.451L179.044 55.165C179.058 55.697 179.086 56.194 179.128 56.656ZM175.39 55.585H177.889V53.149H175.39V55.585ZM198.511 58.441C196.831 58.441 195.641 57.951 194.941 56.971C194.255 55.977 193.912 54.479 193.912 52.477C193.912 51.203 194.003 49.656 194.185 47.836C194.311 46.73 194.374 45.904 194.374 45.358C194.374 44.714 194.297 44.182 194.143 43.762C194.003 43.342 193.751 43.02 193.387 42.796C193.261 42.726 193.198 42.656 193.198 42.586C193.198 42.488 193.289 42.418 193.471 42.376C193.667 42.334 193.87 42.313 194.08 42.313C194.864 42.313 195.41 42.523 195.718 42.943C196.04 43.349 196.201 43.916 196.201 44.644C196.201 45.036 196.152 45.575 196.054 46.261C195.956 46.933 195.9 47.332 195.886 47.458C195.858 47.556 195.83 47.717 195.802 47.941C195.522 49.691 195.382 51.21 195.382 52.498C195.382 53.618 195.494 54.5 195.718 55.144C195.956 55.774 196.334 56.229 196.852 56.509C197.384 56.789 198.112 56.929 199.036 56.929C200.884 56.929 203.138 55.879 205.798 53.779C205.84 53.751 205.903 53.709 205.987 53.653C206.085 53.583 206.162 53.548 206.218 53.548C206.26 53.548 206.281 53.576 206.281 53.632C206.281 53.716 206.197 53.856 206.029 54.052C203.481 56.978 200.975 58.441 198.511 58.441ZM229.381 42.607C229.885 42.607 230.354 42.754 230.788 43.048C231.236 43.328 231.46 43.657 231.46 44.035C231.46 44.217 231.397 44.364 231.271 44.476C231.159 44.588 231.019 44.644 230.851 44.644C230.641 44.644 230.284 44.602 229.78 44.518C229.192 44.406 228.744 44.35 228.436 44.35C228.072 44.35 227.715 44.392 227.365 44.476C227.029 44.56 226.763 44.637 226.567 44.707C225.965 44.973 225.433 45.561 224.971 46.471C224.509 47.367 224.145 48.375 223.879 49.495C223.627 50.601 223.501 51.581 223.501 52.435C223.501 53.821 223.711 54.787 224.131 55.333C224.565 55.879 225.265 56.152 226.231 56.152L226.798 56.11C227.218 56.054 227.547 56.026 227.785 56.026C228.289 56.026 228.688 56.103 228.982 56.257C229.276 56.411 229.423 56.635 229.423 56.929C229.423 57.349 229.136 57.622 228.562 57.748C228.002 57.874 227.414 57.937 226.798 57.937C225.062 57.937 223.837 57.51 223.123 56.656C222.409 55.788 222.052 54.423 222.052 52.561C222.052 50.881 222.409 49.341 223.123 47.941C223.851 46.527 224.761 45.379 225.853 44.497C225.811 44.497 225.72 44.511 225.58 44.539C225.09 44.623 224.348 44.868 223.354 45.274C222.374 45.666 221.387 46.1 220.393 46.576C220.225 46.674 220.078 46.765 219.952 46.849C219.826 46.919 219.714 46.982 219.616 47.038C219.322 47.248 219.07 47.402 218.86 47.5C218.65 47.598 218.419 47.647 218.167 47.647C217.761 47.647 217.341 47.451 216.907 47.059C216.473 46.653 216.172 46.268 216.004 45.904C215.948 45.806 215.92 45.715 215.92 45.631C215.92 45.505 215.983 45.442 216.109 45.442C216.193 45.442 216.284 45.47 216.382 45.526C216.578 45.638 216.753 45.729 216.907 45.799C217.075 45.855 217.264 45.883 217.474 45.883C217.558 45.883 217.684 45.869 217.852 45.841C217.964 45.813 218.426 45.666 219.238 45.4C220.68 44.896 222.052 44.455 223.354 44.077C224.656 43.685 225.846 43.419 226.924 43.279C227.246 43.237 227.645 43.118 228.121 42.922C228.387 42.81 228.611 42.733 228.793 42.691C228.975 42.635 229.171 42.607 229.381 42.607ZM258.55 53.758C258.886 54.038 259.054 54.332 259.054 54.64C259.054 54.836 258.984 55.004 258.844 55.144C258.718 55.284 258.564 55.354 258.382 55.354C258.102 55.354 257.745 55.214 257.311 54.934L255.778 53.8C255.134 53.31 254.784 53.044 254.728 53.002C254.588 53.296 254.364 53.681 254.056 54.157C253.16 55.501 252.103 56.509 250.885 57.181C249.681 57.839 248.414 58.175 247.084 58.189C246.902 58.189 246.811 58.154 246.811 58.084C246.811 58.042 246.839 58.007 246.895 57.979C246.965 57.951 247.028 57.937 247.084 57.937C247.154 57.923 247.21 57.909 247.252 57.895C248.288 57.629 249.317 57.132 250.339 56.404C251.361 55.662 252.222 54.577 252.922 53.149C253.034 52.925 253.188 52.589 253.384 52.141C252.6 51.693 251.781 51.35 250.927 51.112C250.073 50.86 249.114 50.734 248.05 50.734H247.735L246.643 52.918L246.265 53.716C245.775 54.682 245.334 55.396 244.942 55.858C244.55 56.306 244.067 56.53 243.493 56.53C243.017 56.53 242.625 56.369 242.317 56.047C242.023 55.725 241.876 55.291 241.876 54.745C241.876 54.325 241.96 53.891 242.128 53.443C242.296 52.995 242.555 52.561 242.905 52.141C243.353 51.609 243.92 51.168 244.606 50.818C245.306 50.454 246.048 50.202 246.832 50.062L249.268 45.946C249.366 45.792 249.527 45.561 249.751 45.253C250.045 44.819 250.255 44.497 250.381 44.287C250.507 44.077 250.57 43.895 250.57 43.741C250.57 43.629 250.528 43.545 250.444 43.489C250.374 43.433 250.304 43.405 250.234 43.405C250.094 43.405 249.884 43.496 249.604 43.678C249.422 43.79 249.072 44.077 248.554 44.539C248.288 44.791 248.043 45.001 247.819 45.169C247.525 45.379 247.294 45.484 247.126 45.484C246.846 45.484 246.482 45.309 246.034 44.959C245.586 44.609 245.278 44.294 245.11 44.014C245.04 43.902 245.005 43.79 245.005 43.678C245.005 43.552 245.061 43.489 245.173 43.489C245.257 43.489 245.348 43.517 245.446 43.573C245.754 43.769 246.069 43.867 246.391 43.867C246.587 43.867 246.825 43.811 247.105 43.699C247.399 43.587 247.784 43.419 248.26 43.195C248.792 42.943 249.17 42.775 249.394 42.691C249.45 42.663 249.597 42.607 249.835 42.523C250.073 42.425 250.29 42.376 250.486 42.376C250.822 42.376 251.2 42.516 251.62 42.796C252.222 43.216 252.523 43.601 252.523 43.951C252.523 44.259 252.306 44.609 251.872 45.001C250.584 46.163 249.352 47.808 248.176 49.936H248.302C250.024 49.936 251.844 50.321 253.762 51.091C253.958 50.503 254.056 49.957 254.056 49.453C254.056 48.655 253.79 47.99 253.258 47.458C253.188 47.388 253.153 47.325 253.153 47.269C253.153 47.213 253.195 47.185 253.279 47.185C253.377 47.185 253.573 47.241 253.867 47.353C254.329 47.535 254.644 47.668 254.812 47.752C255.064 47.864 255.26 48.088 255.4 48.424C255.554 48.746 255.631 49.159 255.631 49.663C255.631 49.915 255.617 50.104 255.589 50.23C255.855 50.762 256.163 51.273 256.513 51.763C256.877 52.253 257.241 52.666 257.605 53.002C257.703 53.1 257.85 53.219 258.046 53.359C258.242 53.499 258.41 53.632 258.55 53.758ZM255.484 50.881C255.442 51.119 255.365 51.413 255.253 51.763C255.421 51.847 255.827 52.064 256.471 52.414L255.484 50.881ZM246.349 50.902C245.593 51.07 244.921 51.35 244.333 51.742C243.745 52.12 243.297 52.631 242.989 53.275C242.849 53.555 242.779 53.828 242.779 54.094C242.779 54.542 242.961 54.766 243.325 54.766C243.577 54.766 243.822 54.675 244.06 54.493C244.312 54.297 244.536 54.031 244.732 53.695L246.349 50.902ZM276.043 49.411C276.827 49.411 277.576 49.565 278.29 49.873C279.004 50.167 279.585 50.622 280.033 51.238C280.495 51.854 280.726 52.603 280.726 53.485C280.726 54.395 280.46 55.2 279.928 55.9C279.396 56.586 278.703 57.118 277.849 57.496C276.995 57.86 276.106 58.042 275.182 58.042C274.37 58.042 273.663 57.86 273.061 57.496C272.459 57.132 272.158 56.656 272.158 56.068C272.158 55.592 272.347 55.193 272.725 54.871C273.117 54.549 273.6 54.388 274.174 54.388C274.748 54.388 275.287 54.577 275.791 54.955C276.309 55.319 276.687 55.83 276.925 56.488C277.569 56.152 278.101 55.697 278.521 55.123C278.941 54.535 279.151 53.898 279.151 53.212C279.151 52.148 278.815 51.357 278.143 50.839C277.471 50.321 276.68 50.062 275.77 50.062C274.888 50.062 274.062 50.328 273.292 50.86C272.536 51.378 271.794 52.274 271.066 53.548C271.01 53.646 270.898 53.849 270.73 54.157C270.562 54.465 270.394 54.682 270.226 54.808C270.072 54.934 269.897 54.997 269.701 54.997C269.435 54.997 269.225 54.913 269.071 54.745C268.917 54.577 268.84 54.374 268.84 54.136C268.84 53.702 268.994 53.254 269.302 52.792C269.61 52.33 270.135 51.672 270.877 50.818C273.145 48.214 274.769 46.275 275.749 45.001C275.819 44.903 275.903 44.791 276.001 44.665C276.113 44.539 276.19 44.427 276.232 44.329C276.288 44.231 276.316 44.14 276.316 44.056C276.316 43.916 276.26 43.783 276.148 43.657C276.036 43.517 275.924 43.447 275.812 43.447C275.644 43.447 275.462 43.573 275.266 43.825C274.832 44.399 274.37 44.875 273.88 45.253C273.39 45.617 272.907 45.799 272.431 45.799C272.039 45.799 271.71 45.652 271.444 45.358C271.192 45.05 271.024 44.588 270.94 43.972L270.919 43.594C270.919 43.468 270.947 43.405 271.003 43.405C271.045 43.405 271.15 43.51 271.318 43.72C271.514 43.972 271.738 44.098 271.99 44.098C272.242 44.098 272.62 43.993 273.124 43.783C273.642 43.559 274.209 43.265 274.825 42.901C275.189 42.663 275.518 42.544 275.812 42.544C276.078 42.544 276.407 42.621 276.799 42.775C277.205 42.929 277.555 43.139 277.849 43.405C278.143 43.657 278.29 43.937 278.29 44.245C278.29 44.651 278.038 45.043 277.534 45.421C275.532 46.961 273.831 48.669 272.431 50.545C273.621 49.789 274.825 49.411 276.043 49.411ZM275.077 56.971C275.189 56.971 275.357 56.957 275.581 56.929C275.441 56.481 275.238 56.11 274.972 55.816C274.706 55.522 274.349 55.375 273.901 55.375C273.649 55.375 273.46 55.438 273.334 55.564C273.208 55.676 273.145 55.816 273.145 55.984C273.145 56.25 273.348 56.481 273.754 56.677C274.174 56.873 274.615 56.971 275.077 56.971Z" fill="#E8BF89"/>
<path d="M10.014 74.5172L11.0288 82.1018L19.4562 83.0152L11.0288 83.9286L10.014 91.5132L8.99914 83.9286L0.571777 83.0152L8.99914 82.1018L10.014 74.5172Z" fill="#D0A771"/>
<path d="M14.6885 78.3413L11.0912 83.0867L15.3562 88.3563L10.0866 84.0914L5.34117 87.6886L8.93842 82.9432L4.67351 77.6737L9.94307 81.9386L14.6885 78.3413Z" fill="#D0A771"/>
<path d="M29.6262 87.4573L30.2818 91.5134L33.9999 92.2286L30.2818 92.9439L29.6262 97L28.9705 92.9439L25.2524 92.2286L28.9705 91.5134L29.6262 87.4573Z" fill="#D0A771"/>
<path d="M337.5 0L338.624 6.80075L345 8L338.624 9.19925L337.5 16L336.376 9.19925L330 8L336.376 6.80075L337.5 0Z" fill="#D0A771"/>
</svg>
