<svg width="344" height="106" viewBox="0 0 344 106" fill="none" xmlns="http://www.w3.org/2000/svg">
<path d="M119.016 75.7227C117.86 75.7227 116.631 75.6263 115.331 75.4336C114.03 75.2891 112.946 75.1204 112.079 74.9277C110.296 74.5905 108.995 74.3255 108.176 74.1328C107.406 73.8919 106.683 73.7233 106.008 73.627C105.382 70.64 104.924 68.207 104.635 66.3281C104.346 64.401 104.202 63.0039 104.202 62.1367C104.202 61.8477 104.587 61.7031 105.358 61.7031C106.225 61.7031 106.827 61.9199 107.165 62.3535C108.851 69.291 112.85 72.7598 119.161 72.7598C121.57 72.7598 123.617 72.0371 125.303 70.5918C126.99 69.1465 127.833 67.099 127.833 64.4492C127.833 63.582 127.64 62.5221 127.254 61.2695C126.917 60.0169 126.122 58.9329 124.87 58.0176C123.906 57.2949 123.111 56.765 122.485 56.4277C121.859 56.0423 121.232 55.7051 120.606 55.416C119.98 55.0788 119.185 54.6211 118.221 54.043L115.331 52.3086C113.837 51.3932 112.344 50.3574 110.85 49.2012C109.357 47.9967 108.104 46.5996 107.092 45.0098C106.129 43.4199 105.647 41.6133 105.647 39.5898C105.647 37.0365 106.297 34.8203 107.598 32.9414C108.947 31.0143 110.682 29.5208 112.801 28.4609C114.969 27.401 117.306 26.8711 119.811 26.8711C120.871 26.8711 121.859 26.9434 122.774 27.0879C123.738 27.1842 124.532 27.3047 125.159 27.4492C126.604 27.7865 127.616 28.0514 128.194 28.2441C128.82 28.4368 129.663 28.6536 130.723 28.8945C131.301 31.3997 131.59 34.8444 131.59 39.2285C131.59 39.5658 131.35 39.7344 130.868 39.7344C129.663 39.7344 129.037 39.4935 128.989 39.0117C128.748 37.5664 128.218 36.1452 127.399 34.748C126.58 33.3509 125.472 32.1947 124.075 31.2793C122.678 30.3158 121.016 29.834 119.088 29.834C117.113 29.834 115.572 30.2194 114.463 30.9902C113.355 31.7129 112.56 32.6523 112.079 33.8086C111.645 34.9167 111.428 36.097 111.428 37.3496C111.428 38.554 111.717 39.7585 112.296 40.9629C112.874 42.1673 113.717 43.179 114.825 43.998C116.318 45.1061 117.812 46.1419 119.305 47.1055C120.847 48.069 122.437 49.0566 124.075 50.0684C125.616 51.0319 127.158 52.1159 128.7 53.3203C130.241 54.4766 131.518 55.8014 132.53 57.2949C133.59 58.7884 134.12 60.5228 134.12 62.498C134.12 65.0514 133.421 67.3398 132.024 69.3633C130.627 71.3385 128.772 72.9043 126.46 74.0605C124.195 75.1686 121.714 75.7227 119.016 75.7227ZM161.393 75.4336C158.743 75.4336 156.31 74.735 154.094 73.3379C151.878 71.9408 150.095 70.0859 148.746 67.7734C147.446 65.4128 146.795 62.7871 146.795 59.8965C146.795 56.5241 147.421 53.6094 148.674 51.1523C149.927 48.6953 151.637 46.8164 153.805 45.5156C155.973 44.1667 158.406 43.4922 161.104 43.4922C163.32 43.4922 165.271 43.9258 166.957 44.793C168.643 45.612 169.944 46.6719 170.86 47.9727C171.727 49.3216 172.353 50.6947 172.738 52.0918C173.172 53.4408 173.389 54.7897 173.389 56.1387C173.389 57.1022 173.244 57.7044 172.955 57.9453C172.666 58.138 172.112 58.2344 171.293 58.2344H153.082C152.697 58.2344 152.504 58.3548 152.504 58.5957C152.504 60.6191 152.914 62.5703 153.733 64.4492C154.552 66.2799 155.756 67.7975 157.346 69.002C158.936 70.2064 160.887 70.8086 163.199 70.8086C165.223 70.8086 166.909 70.5195 168.258 69.9414C169.655 69.3151 170.667 68.7611 171.293 68.2793L171.799 67.918C172.088 67.918 172.233 68.2311 172.233 68.8574C172.233 69.1947 172.088 69.6283 171.799 70.1582C170.835 71.5072 169.414 72.7357 167.535 73.8438C165.656 74.9036 163.609 75.4336 161.393 75.4336ZM153.082 55.1992H167.174C167.415 55.1992 167.535 54.9583 167.535 54.4766C167.535 53.4167 167.246 52.2604 166.668 51.0078C166.138 49.707 165.319 48.5749 164.211 47.6113C163.103 46.6478 161.706 46.166 160.02 46.166C158.478 46.166 157.153 46.696 156.045 47.7559C154.937 48.7676 154.094 49.9479 153.516 51.2969C152.938 52.5977 152.649 53.7298 152.649 54.6934C152.649 55.0306 152.793 55.1992 153.082 55.1992ZM199.867 75.4336C197.217 75.4336 194.784 74.735 192.568 73.3379C190.352 71.9408 188.569 70.0859 187.221 67.7734C185.92 65.4128 185.269 62.7871 185.269 59.8965C185.269 56.5241 185.896 53.6094 187.148 51.1523C188.401 48.6953 190.111 46.8164 192.279 45.5156C194.447 44.1667 196.88 43.4922 199.578 43.4922C201.794 43.4922 203.745 43.9258 205.431 44.793C207.118 45.612 208.418 46.6719 209.334 47.9727C210.201 49.3216 210.827 50.6947 211.213 52.0918C211.646 53.4408 211.863 54.7897 211.863 56.1387C211.863 57.1022 211.719 57.7044 211.429 57.9453C211.14 58.138 210.586 58.2344 209.767 58.2344H191.556C191.171 58.2344 190.978 58.3548 190.978 58.5957C190.978 60.6191 191.388 62.5703 192.207 64.4492C193.026 66.2799 194.23 67.7975 195.82 69.002C197.41 70.2064 199.361 70.8086 201.674 70.8086C203.697 70.8086 205.383 70.5195 206.732 69.9414C208.129 69.3151 209.141 68.7611 209.767 68.2793L210.273 67.918C210.562 67.918 210.707 68.2311 210.707 68.8574C210.707 69.1947 210.562 69.6283 210.273 70.1582C209.31 71.5072 207.888 72.7357 206.01 73.8438C204.131 74.9036 202.083 75.4336 199.867 75.4336ZM191.556 55.1992H205.648C205.889 55.1992 206.01 54.9583 206.01 54.4766C206.01 53.4167 205.721 52.2604 205.142 51.0078C204.612 49.707 203.793 48.5749 202.685 47.6113C201.577 46.6478 200.18 46.166 198.494 46.166C196.952 46.166 195.627 46.696 194.519 47.7559C193.411 48.7676 192.568 49.9479 191.99 51.2969C191.412 52.5977 191.123 53.7298 191.123 54.6934C191.123 55.0306 191.267 55.1992 191.556 55.1992ZM223.454 75.2168C223.262 75.0241 223.165 74.6146 223.165 73.9883C223.165 73.4102 223.262 73.1211 223.454 73.1211C223.84 73.1211 224.37 73.0488 225.044 72.9043C225.719 72.7598 226.345 72.5671 226.923 72.3262C227.501 72.0853 227.815 71.8685 227.863 71.6758C228.055 71.0013 228.176 70.2305 228.224 69.3633C228.32 68.4961 228.369 67.5807 228.369 66.6172V52.959C228.369 51.1283 228.031 49.8275 227.357 49.0566C226.875 48.4785 226.297 48.0931 225.622 47.9004C224.996 47.7077 224.418 47.6113 223.888 47.6113C223.406 47.5632 223.165 47.4909 223.165 47.3945C223.165 46.2383 223.31 45.6361 223.599 45.5879C226.152 45.2025 228.224 44.8652 229.814 44.5762C231.404 44.2389 232.391 44.0221 232.777 43.9258L233.933 43.6367C234.126 43.5885 234.246 43.7812 234.294 44.2148C234.343 44.6484 234.343 44.9616 234.294 45.1543C234.198 45.8288 234.126 46.4069 234.078 46.8887C234.029 47.3704 234.005 47.7559 234.005 48.0449C234.005 48.2376 234.053 48.334 234.15 48.334C234.198 48.334 234.27 48.2858 234.367 48.1895C235.475 47.0332 236.968 45.9492 238.847 44.9375C240.774 43.8776 242.605 43.3477 244.339 43.3477C247.712 43.3477 250.072 44.5521 251.421 46.9609C252.77 49.3698 253.445 53.2721 253.445 58.668V65.2441C253.445 66.6413 253.493 67.8698 253.589 68.9297C253.686 69.9896 253.83 70.9049 254.023 71.6758C254.119 71.8685 254.456 72.0853 255.035 72.3262C255.613 72.5671 256.239 72.7598 256.913 72.9043C257.588 73.0488 258.07 73.1211 258.359 73.1211C258.503 73.1211 258.6 73.4102 258.648 73.9883C258.696 74.5664 258.672 74.9759 258.576 75.2168L250.843 74.8555L243.255 75.2168C243.063 75.0241 242.966 74.6146 242.966 73.9883C242.966 73.4102 243.063 73.1211 243.255 73.1211C243.641 73.1211 244.147 73.0488 244.773 72.9043C245.399 72.7598 245.977 72.5671 246.507 72.3262C247.037 72.0853 247.326 71.8685 247.374 71.6758C247.567 71.0013 247.688 70.2305 247.736 69.3633C247.832 68.4961 247.88 67.5807 247.88 66.6172V59.3906C247.88 54.9102 247.302 51.8509 246.146 50.2129C244.99 48.5749 243.111 47.7559 240.509 47.7559C239.497 47.7559 238.486 48.0449 237.474 48.623C236.462 49.153 235.619 49.7793 234.945 50.502C234.27 51.2246 233.933 51.8991 233.933 52.5254V65.2441C233.933 66.6413 233.981 67.8698 234.078 68.9297C234.174 69.9896 234.318 70.9049 234.511 71.6758C234.607 71.8685 234.945 72.0853 235.523 72.3262C236.101 72.5671 236.727 72.7598 237.402 72.9043C238.076 73.0488 238.558 73.1211 238.847 73.1211C238.992 73.1211 239.088 73.4102 239.136 73.9883C239.184 74.5664 239.16 74.9759 239.064 75.2168L231.331 74.8555L223.454 75.2168Z" fill="#CBBFA1"/>
<path d="M0.333333 58C0.333333 59.4728 1.52724 60.6667 3 60.6667C4.47276 60.6667 5.66667 59.4728 5.66667 58C5.66667 56.5272 4.47276 55.3333 3 55.3333C1.52724 55.3333 0.333333 56.5272 0.333333 58ZM94 58.5C94.2761 58.5 94.5 58.2761 94.5 58C94.5 57.7239 94.2761 57.5 94 57.5V58.5ZM3 58V58.5H94V58V57.5H3V58Z" fill="#CBBFA1" fill-opacity="0.9"/>
<path d="M271 57.5C270.724 57.5 270.5 57.7239 270.5 58C270.5 58.2761 270.724 58.5 271 58.5V57.5ZM338.333 58C338.333 59.4728 339.527 60.6667 341 60.6667C342.473 60.6667 343.667 59.4728 343.667 58C343.667 56.5272 342.473 55.3333 341 55.3333C339.527 55.3333 338.333 56.5272 338.333 58ZM271 58V58.5L341 58.5V58V57.5L271 57.5V58Z" fill="#CBBFA1" fill-opacity="0.9"/>
</svg>
