<svg width="480" height="131" viewBox="0 0 480 131" fill="none" xmlns="http://www.w3.org/2000/svg">
<path d="M178.242 75.7227C177.086 75.7227 175.857 75.6263 174.556 75.4336C173.255 75.2891 172.171 75.1204 171.304 74.9277C169.522 74.5905 168.221 74.3255 167.402 74.1328C166.631 73.8919 165.908 73.7233 165.234 73.627C164.608 70.64 164.15 68.207 163.861 66.3281C163.572 64.401 163.427 63.0039 163.427 62.1367C163.427 61.8477 163.813 61.7031 164.584 61.7031C165.451 61.7031 166.053 61.9199 166.39 62.3535C168.076 69.291 172.075 72.7598 178.386 72.7598C180.795 72.7598 182.843 72.0371 184.529 70.5918C186.215 69.1465 187.058 67.099 187.058 64.4492C187.058 63.582 186.865 62.5221 186.48 61.2695C186.143 60.0169 185.348 58.9329 184.095 58.0176C183.132 57.2949 182.337 56.765 181.711 56.4277C181.084 56.0423 180.458 55.7051 179.832 55.416C179.205 55.0788 178.41 54.6211 177.447 54.043L174.556 52.3086C173.063 51.3932 171.569 50.3574 170.076 49.2012C168.582 47.9967 167.33 46.5996 166.318 45.0098C165.354 43.4199 164.873 41.6133 164.873 39.5898C164.873 37.0365 165.523 34.8203 166.824 32.9414C168.173 31.0143 169.907 29.5208 172.027 28.4609C174.195 27.401 176.532 26.8711 179.037 26.8711C180.097 26.8711 181.084 26.9434 182 27.0879C182.963 27.1842 183.758 27.3047 184.384 27.4492C185.83 27.7865 186.841 28.0514 187.42 28.2441C188.046 28.4368 188.889 28.6536 189.949 28.8945C190.527 31.3997 190.816 34.8444 190.816 39.2285C190.816 39.5658 190.575 39.7344 190.093 39.7344C188.889 39.7344 188.263 39.4935 188.214 39.0117C187.974 37.5664 187.444 36.1452 186.625 34.748C185.806 33.3509 184.698 32.1947 183.3 31.2793C181.903 30.3158 180.241 29.834 178.314 29.834C176.339 29.834 174.797 30.2194 173.689 30.9902C172.581 31.7129 171.786 32.6523 171.304 33.8086C170.871 34.9167 170.654 36.097 170.654 37.3496C170.654 38.554 170.943 39.7585 171.521 40.9629C172.099 42.1673 172.942 43.179 174.05 43.998C175.544 45.1061 177.037 46.1419 178.531 47.1055C180.073 48.069 181.662 49.0566 183.3 50.0684C184.842 51.0319 186.384 52.1159 187.925 53.3203C189.467 54.4766 190.744 55.8014 191.755 57.2949C192.815 58.7884 193.345 60.5228 193.345 62.498C193.345 65.0514 192.647 67.3398 191.25 69.3633C189.852 71.3385 187.998 72.9043 185.685 74.0605C183.421 75.1686 180.94 75.7227 178.242 75.7227ZM220.618 75.4336C217.969 75.4336 215.536 74.735 213.32 73.3379C211.103 71.9408 209.321 70.0859 207.972 67.7734C206.671 65.4128 206.021 62.7871 206.021 59.8965C206.021 56.5241 206.647 53.6094 207.9 51.1523C209.152 48.6953 210.863 46.8164 213.03 45.5156C215.198 44.1667 217.631 43.4922 220.329 43.4922C222.545 43.4922 224.497 43.9258 226.183 44.793C227.869 45.612 229.17 46.6719 230.085 47.9727C230.952 49.3216 231.579 50.6947 231.964 52.0918C232.398 53.4408 232.614 54.7897 232.614 56.1387C232.614 57.1022 232.47 57.7044 232.181 57.9453C231.892 58.138 231.338 58.2344 230.519 58.2344H212.308C211.922 58.2344 211.73 58.3548 211.73 58.5957C211.73 60.6191 212.139 62.5703 212.958 64.4492C213.777 66.2799 214.982 67.7975 216.571 69.002C218.161 70.2064 220.113 70.8086 222.425 70.8086C224.448 70.8086 226.135 70.5195 227.484 69.9414C228.881 69.3151 229.892 68.7611 230.519 68.2793L231.025 67.918C231.314 67.918 231.458 68.2311 231.458 68.8574C231.458 69.1947 231.314 69.6283 231.025 70.1582C230.061 71.5072 228.64 72.7357 226.761 73.8438C224.882 74.9036 222.835 75.4336 220.618 75.4336ZM212.308 55.1992H226.4C226.64 55.1992 226.761 54.9583 226.761 54.4766C226.761 53.4167 226.472 52.2604 225.894 51.0078C225.364 49.707 224.545 48.5749 223.437 47.6113C222.329 46.6478 220.932 46.166 219.245 46.166C217.704 46.166 216.379 46.696 215.271 47.7559C214.163 48.7676 213.32 49.9479 212.741 51.2969C212.163 52.5977 211.874 53.7298 211.874 54.6934C211.874 55.0306 212.019 55.1992 212.308 55.1992ZM259.093 75.4336C256.443 75.4336 254.01 74.735 251.794 73.3379C249.578 71.9408 247.795 70.0859 246.446 67.7734C245.145 65.4128 244.495 62.7871 244.495 59.8965C244.495 56.5241 245.121 53.6094 246.374 51.1523C247.626 48.6953 249.337 46.8164 251.505 45.5156C253.673 44.1667 256.106 43.4922 258.804 43.4922C261.02 43.4922 262.971 43.9258 264.657 44.793C266.343 45.612 267.644 46.6719 268.559 47.9727C269.427 49.3216 270.053 50.6947 270.438 52.0918C270.872 53.4408 271.089 54.7897 271.089 56.1387C271.089 57.1022 270.944 57.7044 270.655 57.9453C270.366 58.138 269.812 58.2344 268.993 58.2344H250.782C250.397 58.2344 250.204 58.3548 250.204 58.5957C250.204 60.6191 250.613 62.5703 251.432 64.4492C252.251 66.2799 253.456 67.7975 255.046 69.002C256.636 70.2064 258.587 70.8086 260.899 70.8086C262.923 70.8086 264.609 70.5195 265.958 69.9414C267.355 69.3151 268.367 68.7611 268.993 68.2793L269.499 67.918C269.788 67.918 269.932 68.2311 269.932 68.8574C269.932 69.1947 269.788 69.6283 269.499 70.1582C268.535 71.5072 267.114 72.7357 265.235 73.8438C263.356 74.9036 261.309 75.4336 259.093 75.4336ZM250.782 55.1992H264.874C265.115 55.1992 265.235 54.9583 265.235 54.4766C265.235 53.4167 264.946 52.2604 264.368 51.0078C263.838 49.707 263.019 48.5749 261.911 47.6113C260.803 46.6478 259.406 46.166 257.72 46.166C256.178 46.166 254.853 46.696 253.745 47.7559C252.637 48.7676 251.794 49.9479 251.216 51.2969C250.638 52.5977 250.348 53.7298 250.348 54.6934C250.348 55.0306 250.493 55.1992 250.782 55.1992ZM282.68 75.2168C282.487 75.0241 282.391 74.6146 282.391 73.9883C282.391 73.4102 282.487 73.1211 282.68 73.1211C283.065 73.1211 283.595 73.0488 284.27 72.9043C284.944 72.7598 285.571 72.5671 286.149 72.3262C286.727 72.0853 287.04 71.8685 287.088 71.6758C287.281 71.0013 287.401 70.2305 287.45 69.3633C287.546 68.4961 287.594 67.5807 287.594 66.6172V52.959C287.594 51.1283 287.257 49.8275 286.582 49.0566C286.101 48.4785 285.523 48.0931 284.848 47.9004C284.222 47.7077 283.644 47.6113 283.114 47.6113C282.632 47.5632 282.391 47.4909 282.391 47.3945C282.391 46.2383 282.536 45.6361 282.825 45.5879C285.378 45.2025 287.45 44.8652 289.039 44.5762C290.629 44.2389 291.617 44.0221 292.002 43.9258L293.159 43.6367C293.351 43.5885 293.472 43.7812 293.52 44.2148C293.568 44.6484 293.568 44.9616 293.52 45.1543C293.424 45.8288 293.351 46.4069 293.303 46.8887C293.255 47.3704 293.231 47.7559 293.231 48.0449C293.231 48.2376 293.279 48.334 293.375 48.334C293.424 48.334 293.496 48.2858 293.592 48.1895C294.7 47.0332 296.194 45.9492 298.073 44.9375C300 43.8776 301.83 43.3477 303.565 43.3477C306.937 43.3477 309.298 44.5521 310.647 46.9609C311.996 49.3698 312.67 53.2721 312.67 58.668V65.2441C312.67 66.6413 312.718 67.8698 312.815 68.9297C312.911 69.9896 313.056 70.9049 313.248 71.6758C313.345 71.8685 313.682 72.0853 314.26 72.3262C314.838 72.5671 315.465 72.7598 316.139 72.9043C316.814 73.0488 317.295 73.1211 317.584 73.1211C317.729 73.1211 317.825 73.4102 317.873 73.9883C317.922 74.5664 317.898 74.9759 317.801 75.2168L310.069 74.8555L302.481 75.2168C302.288 75.0241 302.192 74.6146 302.192 73.9883C302.192 73.4102 302.288 73.1211 302.481 73.1211C302.866 73.1211 303.372 73.0488 303.998 72.9043C304.625 72.7598 305.203 72.5671 305.733 72.3262C306.263 72.0853 306.552 71.8685 306.6 71.6758C306.793 71.0013 306.913 70.2305 306.961 69.3633C307.058 68.4961 307.106 67.5807 307.106 66.6172V59.3906C307.106 54.9102 306.528 51.8509 305.371 50.2129C304.215 48.5749 302.336 47.7559 299.735 47.7559C298.723 47.7559 297.711 48.0449 296.7 48.623C295.688 49.153 294.845 49.7793 294.17 50.502C293.496 51.2246 293.159 51.8991 293.159 52.5254V65.2441C293.159 66.6413 293.207 67.8698 293.303 68.9297C293.399 69.9896 293.544 70.9049 293.737 71.6758C293.833 71.8685 294.17 72.0853 294.748 72.3262C295.327 72.5671 295.953 72.7598 296.627 72.9043C297.302 73.0488 297.784 73.1211 298.073 73.1211C298.217 73.1211 298.314 73.4102 298.362 73.9883C298.41 74.5664 298.386 74.9759 298.289 75.2168L290.557 74.8555L282.68 75.2168Z" fill="#CBBFA1"/>
<path d="M0.333333 128C0.333333 129.473 1.52724 130.667 3 130.667C4.47276 130.667 5.66667 129.473 5.66667 128C5.66667 126.527 4.47276 125.333 3 125.333C1.52724 125.333 0.333333 126.527 0.333333 128ZM474.333 128C474.333 129.473 475.527 130.667 477 130.667C478.473 130.667 479.667 129.473 479.667 128C479.667 126.527 478.473 125.333 477 125.333C475.527 125.333 474.333 126.527 474.333 128ZM3 128L3 128.5L477 128.5L477 128L477 127.5L3 127.5L3 128Z" fill="#CBBFA1" fill-opacity="0.9"/>
<path d="M358.014 1.51733L359.029 9.10196L367.456 10.0153L359.029 10.9287L358.014 18.5133L356.999 10.9287L348.572 10.0153L356.999 9.10196L358.014 1.51733Z" fill="#D0A771"/>
<path d="M362.688 5.34132L359.091 10.0867L363.356 15.3563L358.087 11.0914L353.341 14.6886L356.938 9.94322L352.674 4.67366L357.943 8.93857L362.688 5.34132Z" fill="#D0A771"/>
<path d="M377.626 14.4573L378.282 18.5134L382 19.2286L378.282 19.9439L377.626 24L376.971 19.9439L373.252 19.2286L376.971 18.5134L377.626 14.4573Z" fill="#D0A771"/>
</svg>
